<svg width="320" height="160" viewBox="0 0 320 160" fill="none" xmlns="http://www.w3.org/2000/svg">
  <defs>
    <linearGradient id="brandGradient" x1="28" y1="24" x2="292" y2="136" gradientUnits="userSpaceOnUse">
      <stop offset="0" stop-color="#43D7FF"/>
      <stop offset="0.52" stop-color="#7B74FF"/>
      <stop offset="1" stop-color="#F16BFF"/>
    </linearGradient>
    <filter id="brandGlow" x="0" y="0" width="320" height="160" filterUnits="userSpaceOnUse" color-interpolation-filters="sRGB">
      <feGaussianBlur stdDeviation="1.8" result="blur"/>
      <feComposite in="SourceGraphic" in2="blur" operator="over"/>
    </filter>
  </defs>

  <g stroke="url(#brandGradient)" stroke-width="6" stroke-linecap="round" stroke-linejoin="round" filter="url(#brandGlow)">
    <path d="M34 98H56V86H64V98H78V74H90V98H106V56H118V98H136V70H148V98H162V44H174V98H188V52H202V98H220V66H234V98H250V58H262V98H286"/>
    <path d="M28 126H72L84 112L96 132L110 70L124 140L142 94L156 92L170 106L182 88L194 116L208 62L224 124L240 84L254 140L268 106H292"/>
  </g>
</svg>
